<svg xmlns="http://www.w3.org/2000/svg" viewBox="0 0 1040 350" font-family="Segoe UI, Roboto, Helvetica, Arial, sans-serif">
<defs></defs>
<rect x="0.5" y="0.5" width="1039" height="349" rx="18" fill="#ffffff" stroke="#e3e8f0"/>
<text x="40" y="50" font-family="Segoe UI, Roboto, Helvetica, Arial, sans-serif" font-size="23" fill="#1a1a1a" font-weight="800" text-anchor="start">From a multi-day close to a continuous one</text><text x="40" y="76" font-family="Segoe UI, Roboto, Helvetica, Arial, sans-serif" font-size="14.5" fill="#6b7280" font-weight="400" text-anchor="start">Reconciliation runs every day, so the books are always close-ready.</text><line x1="210" y1="120" x2="210" y2="300" stroke="#e3e8f0" stroke-width="1"/><text x="210.0" y="316" font-family="Segoe UI, Roboto, Helvetica, Arial, sans-serif" font-size="11" fill="#6b7280" font-weight="600" text-anchor="middle">D0</text><line x1="306" y1="120" x2="306" y2="300" stroke="#e3e8f0" stroke-width="1"/><text x="306.25" y="316" font-family="Segoe UI, Roboto, Helvetica, Arial, sans-serif" font-size="11" fill="#6b7280" font-weight="600" text-anchor="middle">D1</text><line x1="402" y1="120" x2="402" y2="300" stroke="#e3e8f0" stroke-width="1"/><text x="402.5" y="316" font-family="Segoe UI, Roboto, Helvetica, Arial, sans-serif" font-size="11" fill="#6b7280" font-weight="600" text-anchor="middle">D2</text><line x1="499" y1="120" x2="499" y2="300" stroke="#e3e8f0" stroke-width="1"/><text x="498.75" y="316" font-family="Segoe UI, Roboto, Helvetica, Arial, sans-serif" font-size="11" fill="#6b7280" font-weight="600" text-anchor="middle">D3</text><line x1="595" y1="120" x2="595" y2="300" stroke="#e3e8f0" stroke-width="1"/><text x="595.0" y="316" font-family="Segoe UI, Roboto, Helvetica, Arial, sans-serif" font-size="11" fill="#6b7280" font-weight="600" text-anchor="middle">D4</text><line x1="691" y1="120" x2="691" y2="300" stroke="#e3e8f0" stroke-width="1"/><text x="691.25" y="316" font-family="Segoe UI, Roboto, Helvetica, Arial, sans-serif" font-size="11" fill="#6b7280" font-weight="600" text-anchor="middle">D5</text><line x1="788" y1="120" x2="788" y2="300" stroke="#e3e8f0" stroke-width="1"/><text x="787.5" y="316" font-family="Segoe UI, Roboto, Helvetica, Arial, sans-serif" font-size="11" fill="#6b7280" font-weight="600" text-anchor="middle">D6</text><line x1="884" y1="120" x2="884" y2="300" stroke="#e3e8f0" stroke-width="1"/><text x="883.75" y="316" font-family="Segoe UI, Roboto, Helvetica, Arial, sans-serif" font-size="11" fill="#6b7280" font-weight="600" text-anchor="middle">D7</text><line x1="980" y1="120" x2="980" y2="300" stroke="#e3e8f0" stroke-width="1"/><text x="980.0" y="316" font-family="Segoe UI, Roboto, Helvetica, Arial, sans-serif" font-size="11" fill="#6b7280" font-weight="600" text-anchor="middle">D8</text><text x="40" y="160" font-family="Segoe UI, Roboto, Helvetica, Arial, sans-serif" font-size="13" fill="#1a1a1a" font-weight="800" text-anchor="start">Traditional</text><text x="40" y="178" font-family="Segoe UI, Roboto, Helvetica, Arial, sans-serif" font-size="13" fill="#1a1a1a" font-weight="800" text-anchor="start">close</text><rect x="210.0" y="140" width="192.5" height="40" rx="8" fill="#cbd5e1" stroke="#cbd5e1" stroke-width="1"/><text x="306.25" y="165" font-family="Segoe UI, Roboto, Helvetica, Arial, sans-serif" font-size="11.5" fill="#ffffff" font-weight="700" text-anchor="middle">Collect</text><rect x="402.5" y="140" width="288.75" height="40" rx="8" fill="#94a3b8" stroke="#94a3b8" stroke-width="1"/><text x="546.875" y="165" font-family="Segoe UI, Roboto, Helvetica, Arial, sans-serif" font-size="11.5" fill="#ffffff" font-weight="700" text-anchor="middle">Reconcile</text><rect x="691.25" y="140" width="192.5" height="40" rx="8" fill="#64748b" stroke="#64748b" stroke-width="1"/><text x="787.5" y="165" font-family="Segoe UI, Roboto, Helvetica, Arial, sans-serif" font-size="11.5" fill="#ffffff" font-weight="700" text-anchor="middle">Adjust</text><rect x="883.75" y="140" width="96.25" height="40" rx="8" fill="#475569" stroke="#475569" stroke-width="1"/><text x="931.875" y="165" font-family="Segoe UI, Roboto, Helvetica, Arial, sans-serif" font-size="11.5" fill="#ffffff" font-weight="700" text-anchor="middle">Review</text><text x="40" y="240" font-family="Segoe UI, Roboto, Helvetica, Arial, sans-serif" font-size="13" fill="#2563eb" font-weight="800" text-anchor="start">With Biloop</text><circle cx="258" cy="240" r="7" fill="#16a34a" opacity="0.18"/><path d="M255,240 l2,3 l5,-6" fill="none" stroke="#16a34a" stroke-width="2" stroke-linecap="round" stroke-linejoin="round"/><circle cx="354" cy="240" r="7" fill="#16a34a" opacity="0.18"/><path d="M351,240 l2,3 l5,-6" fill="none" stroke="#16a34a" stroke-width="2" stroke-linecap="round" stroke-linejoin="round"/><circle cx="451" cy="240" r="7" fill="#16a34a" opacity="0.18"/><path d="M448,240 l2,3 l5,-6" fill="none" stroke="#16a34a" stroke-width="2" stroke-linecap="round" stroke-linejoin="round"/><circle cx="547" cy="240" r="7" fill="#16a34a" opacity="0.18"/><path d="M544,240 l2,3 l5,-6" fill="none" stroke="#16a34a" stroke-width="2" stroke-linecap="round" stroke-linejoin="round"/><circle cx="643" cy="240" r="7" fill="#16a34a" opacity="0.18"/><path d="M640,240 l2,3 l5,-6" fill="none" stroke="#16a34a" stroke-width="2" stroke-linecap="round" stroke-linejoin="round"/><circle cx="739" cy="240" r="7" fill="#16a34a" opacity="0.18"/><path d="M736,240 l2,3 l5,-6" fill="none" stroke="#16a34a" stroke-width="2" stroke-linecap="round" stroke-linejoin="round"/><circle cx="836" cy="240" r="7" fill="#16a34a" opacity="0.18"/><path d="M833,240 l2,3 l5,-6" fill="none" stroke="#16a34a" stroke-width="2" stroke-linecap="round" stroke-linejoin="round"/><circle cx="932" cy="240" r="7" fill="#16a34a" opacity="0.18"/><path d="M929,240 l2,3 l5,-6" fill="none" stroke="#16a34a" stroke-width="2" stroke-linecap="round" stroke-linejoin="round"/><rect x="210" y="224" width="770" height="2" rx="1" fill="#16a34a" stroke="#16a34a" stroke-width="1"/><rect x="804" y="256" width="176" height="34" rx="9" fill="#f0fbf7" stroke="#bfe6d8" stroke-width="1"/><text x="892" y="278" font-family="Segoe UI, Roboto, Helvetica, Arial, sans-serif" font-size="12" fill="#0f5132" font-weight="700" text-anchor="middle">always close-ready</text>
</svg>
