<svg xmlns="http://www.w3.org/2000/svg" viewBox="0 0 1040 380" font-family="Segoe UI, Roboto, Helvetica, Arial, sans-serif">
<defs></defs>
<rect x="0.5" y="0.5" width="1039" height="379" rx="18" fill="#ffffff" stroke="#e3e8f0"/>
<marker id="am" markerWidth="11" markerHeight="11" refX="7" refY="4" orient="auto" markerUnits="userSpaceOnUse"><path d="M0,0 L8,4 L0,8 Z" fill="#f59e0b"/></marker><text x="40" y="50" font-family="Segoe UI, Roboto, Helvetica, Arial, sans-serif" font-size="23" fill="#1a1a1a" font-weight="800" text-anchor="start">The right tech, right parts, shortest route</text><text x="40" y="76" font-family="Segoe UI, Roboto, Helvetica, Arial, sans-serif" font-size="14.5" fill="#6b7280" font-weight="400" text-anchor="start">Biloop assigns by skill, location, parts and SLA — minimising drive time.</text><rect x="60" y="100" width="920" height="250" rx="14" fill="#f8fafc" stroke="#e3e8f0" stroke-width="1"/><line x1="100" y1="100" x2="100" y2="350" stroke="#e3e8f0" stroke-width="1"/><line x1="170" y1="100" x2="170" y2="350" stroke="#e3e8f0" stroke-width="1"/><line x1="240" y1="100" x2="240" y2="350" stroke="#e3e8f0" stroke-width="1"/><line x1="310" y1="100" x2="310" y2="350" stroke="#e3e8f0" stroke-width="1"/><line x1="380" y1="100" x2="380" y2="350" stroke="#e3e8f0" stroke-width="1"/><line x1="450" y1="100" x2="450" y2="350" stroke="#e3e8f0" stroke-width="1"/><line x1="520" y1="100" x2="520" y2="350" stroke="#e3e8f0" stroke-width="1"/><line x1="590" y1="100" x2="590" y2="350" stroke="#e3e8f0" stroke-width="1"/><line x1="660" y1="100" x2="660" y2="350" stroke="#e3e8f0" stroke-width="1"/><line x1="730" y1="100" x2="730" y2="350" stroke="#e3e8f0" stroke-width="1"/><line x1="800" y1="100" x2="800" y2="350" stroke="#e3e8f0" stroke-width="1"/><line x1="870" y1="100" x2="870" y2="350" stroke="#e3e8f0" stroke-width="1"/><line x1="940" y1="100" x2="940" y2="350" stroke="#e3e8f0" stroke-width="1"/><line x1="60" y1="140" x2="980" y2="140" stroke="#e3e8f0" stroke-width="1"/><line x1="60" y1="210" x2="980" y2="210" stroke="#e3e8f0" stroke-width="1"/><line x1="60" y1="280" x2="980" y2="280" stroke="#e3e8f0" stroke-width="1"/><path d="M140,300 L330,180 L540,250 L720,150 L880,260" fill="none" stroke="#f59e0b" stroke-width="3" stroke-dasharray="2 0" marker-end="url(#am)"/><rect x="118" y="278" width="44" height="44" rx="8" fill="#2563eb"/><text x="140" y="305" font-family="Segoe UI, Roboto, Helvetica, Arial, sans-serif" font-size="20" fill="#ffffff" font-weight="800" text-anchor="middle">⌂</text><text x="140" y="338" font-family="Segoe UI, Roboto, Helvetica, Arial, sans-serif" font-size="12" fill="#374151" font-weight="700" text-anchor="middle">Depot</text><circle cx="330" cy="180" r="16" fill="#ffffff" stroke="#f59e0b" stroke-width="3"/><text x="330" y="185" font-family="Segoe UI, Roboto, Helvetica, Arial, sans-serif" font-size="13" fill="#f59e0b" font-weight="800" text-anchor="middle">1</text><rect x="286" y="134" width="88" height="24" rx="7" fill="#ffffff" stroke="#dbe4f3" stroke-width="1"/><text x="330" y="151" font-family="Segoe UI, Roboto, Helvetica, Arial, sans-serif" font-size="11.5" fill="#374151" font-weight="700" text-anchor="middle">HVAC</text><circle cx="540" cy="250" r="16" fill="#ffffff" stroke="#f59e0b" stroke-width="3"/><text x="540" y="255" font-family="Segoe UI, Roboto, Helvetica, Arial, sans-serif" font-size="13" fill="#f59e0b" font-weight="800" text-anchor="middle">2</text><rect x="496" y="204" width="88" height="24" rx="7" fill="#ffffff" stroke="#dbe4f3" stroke-width="1"/><text x="540" y="221" font-family="Segoe UI, Roboto, Helvetica, Arial, sans-serif" font-size="11.5" fill="#374151" font-weight="700" text-anchor="middle">Lift</text><circle cx="720" cy="150" r="16" fill="#ffffff" stroke="#f59e0b" stroke-width="3"/><text x="720" y="155" font-family="Segoe UI, Roboto, Helvetica, Arial, sans-serif" font-size="13" fill="#f59e0b" font-weight="800" text-anchor="middle">3</text><rect x="676" y="104" width="88" height="24" rx="7" fill="#ffffff" stroke="#dbe4f3" stroke-width="1"/><text x="720" y="121" font-family="Segoe UI, Roboto, Helvetica, Arial, sans-serif" font-size="11.5" fill="#374151" font-weight="700" text-anchor="middle">Genset</text><circle cx="880" cy="260" r="16" fill="#ffffff" stroke="#f59e0b" stroke-width="3"/><text x="880" y="265" font-family="Segoe UI, Roboto, Helvetica, Arial, sans-serif" font-size="13" fill="#f59e0b" font-weight="800" text-anchor="middle">4</text><rect x="836" y="214" width="88" height="24" rx="7" fill="#ffffff" stroke="#dbe4f3" stroke-width="1"/><text x="880" y="231" font-family="Segoe UI, Roboto, Helvetica, Arial, sans-serif" font-size="11.5" fill="#374151" font-weight="700" text-anchor="middle">Chiller</text><rect x="770" y="306" width="200" height="32" rx="8" fill="#f0fbf7" stroke="#bfe6d8" stroke-width="1"/><text x="870" y="327" font-family="Segoe UI, Roboto, Helvetica, Arial, sans-serif" font-size="12" fill="#0f5132" font-weight="700" text-anchor="middle">drive time minimised</text>
</svg>
