<svg xmlns="http://www.w3.org/2000/svg" viewBox="0 0 1040 410" font-family="Segoe UI, Roboto, Helvetica, Arial, sans-serif">
<defs></defs>
<rect x="0.5" y="0.5" width="1039" height="409" rx="18" fill="#ffffff" stroke="#e3e8f0"/>
<marker id="ar" markerWidth="11" markerHeight="11" refX="7" refY="4" orient="auto" markerUnits="userSpaceOnUse"><path d="M0,0 L8,4 L0,8 Z" fill="#0ea5a4"/></marker><text x="40" y="50" font-family="Segoe UI, Roboto, Helvetica, Arial, sans-serif" font-size="23" fill="#1a1a1a" font-weight="800" text-anchor="start">Demand forecasting keeps shelves stocked — not overstocked</text><text x="40" y="76" font-family="Segoe UI, Roboto, Helvetica, Arial, sans-serif" font-size="14.5" fill="#6b7280" font-weight="400" text-anchor="start">Medloop learns each product's demand and reorders before you run out.</text><line x1="96" y1="120" x2="96" y2="360" stroke="#dbe4f3" stroke-width="1.5"/><line x1="96" y1="360" x2="980" y2="360" stroke="#dbe4f3" stroke-width="1.5"/><line x1="96" y1="150" x2="980" y2="150" stroke="#e3e8f0" stroke-width="1"/><line x1="96" y1="210" x2="980" y2="210" stroke="#e3e8f0" stroke-width="1"/><line x1="96" y1="270" x2="980" y2="270" stroke="#e3e8f0" stroke-width="1"/><line x1="96" y1="320" x2="980" y2="320" stroke="#e11d48" stroke-width="1.6" stroke-dasharray="6 5"/><text x="974" y="312" font-family="Segoe UI, Roboto, Helvetica, Arial, sans-serif" font-size="12.5" fill="#e11d48" font-weight="700" text-anchor="end">Reorder point</text><path d="M608,226 L729,204 L849,218 L970,194 L970,234 L849,258 L729,244 L608,266 Z" fill="#0ea5a4" opacity="0.12"/><path d="M126,250 L247,236 L367,262 L488,228 L608,246" fill="none" stroke="#2563eb" stroke-width="3" stroke-linecap="round" stroke-linejoin="round"/><circle cx="126" cy="250" r="4.5" fill="#2563eb"/><circle cx="247" cy="236" r="4.5" fill="#2563eb"/><circle cx="367" cy="262" r="4.5" fill="#2563eb"/><circle cx="488" cy="228" r="4.5" fill="#2563eb"/><circle cx="608" cy="246" r="4.5" fill="#2563eb"/><path d="M608,246 L608,246 L729,224 L849,238 L970,214" fill="none" stroke="#0ea5a4" stroke-width="3" stroke-dasharray="7 5" stroke-linecap="round" stroke-linejoin="round"/><circle cx="608" cy="246" r="4.5" fill="#ffffff" stroke="#0ea5a4" stroke-width="2.5"/><circle cx="729" cy="224" r="4.5" fill="#ffffff" stroke="#0ea5a4" stroke-width="2.5"/><circle cx="849" cy="238" r="4.5" fill="#ffffff" stroke="#0ea5a4" stroke-width="2.5"/><circle cx="970" cy="214" r="4.5" fill="#ffffff" stroke="#0ea5a4" stroke-width="2.5"/><text x="126.0" y="382" font-family="Segoe UI, Roboto, Helvetica, Arial, sans-serif" font-size="12" fill="#6b7280" font-weight="600" text-anchor="middle">W1</text><text x="246.57142857142856" y="382" font-family="Segoe UI, Roboto, Helvetica, Arial, sans-serif" font-size="12" fill="#6b7280" font-weight="600" text-anchor="middle">W2</text><text x="367.1428571428571" y="382" font-family="Segoe UI, Roboto, Helvetica, Arial, sans-serif" font-size="12" fill="#6b7280" font-weight="600" text-anchor="middle">W3</text><text x="487.7142857142857" y="382" font-family="Segoe UI, Roboto, Helvetica, Arial, sans-serif" font-size="12" fill="#6b7280" font-weight="600" text-anchor="middle">W4</text><text x="608.2857142857142" y="382" font-family="Segoe UI, Roboto, Helvetica, Arial, sans-serif" font-size="12" fill="#6b7280" font-weight="600" text-anchor="middle">W5</text><text x="728.8571428571429" y="382" font-family="Segoe UI, Roboto, Helvetica, Arial, sans-serif" font-size="12" fill="#6b7280" font-weight="600" text-anchor="middle">W6</text><text x="849.4285714285714" y="382" font-family="Segoe UI, Roboto, Helvetica, Arial, sans-serif" font-size="12" fill="#6b7280" font-weight="600" text-anchor="middle">W7</text><text x="970.0" y="382" font-family="Segoe UI, Roboto, Helvetica, Arial, sans-serif" font-size="12" fill="#6b7280" font-weight="600" text-anchor="middle">W8</text><circle cx="488" cy="228" r="9" fill="none" stroke="#16a34a" stroke-width="2"/><text x="501.7142857142857" y="216" font-family="Segoe UI, Roboto, Helvetica, Arial, sans-serif" font-size="12" fill="#16a34a" font-weight="700" text-anchor="start">dip stays above reorder</text><line x1="104" y1="100" x2="130" y2="100" stroke="#2563eb" stroke-width="3"/><text x="138" y="104" font-family="Segoe UI, Roboto, Helvetica, Arial, sans-serif" font-size="12.5" fill="#374151" font-weight="600" text-anchor="start">Actual demand</text><line x1="274" y1="100" x2="300" y2="100" stroke="#0ea5a4" stroke-width="3" stroke-dasharray="7 5"/><text x="308" y="104" font-family="Segoe UI, Roboto, Helvetica, Arial, sans-serif" font-size="12.5" fill="#374151" font-weight="600" text-anchor="start">Medloop forecast</text>
</svg>
